# xmcd CD database file
#
# Track frame offsets:
#	150
#	18042
#	31602
#	46257
#	59262
#	73562
#	85345
#	99627
#	118615
#	146842
#	162897
#	184847
#	211182
#	229920
#	255440
#	276682
#	319060
#
# Disc length: 4712 seconds
#
# Revision: 0
# Processed by: cddbd v1.5.1PL0 Copyright (c) Steve Scherf et al.
# Submitted via: CDex 1.51
#
DISCID=ea126611
DTITLE=Various Artist - Vocal Jazz Highligts CD3 Male
DYEAR=2004
DGENRE=Jazz
TTITLE0=Louis Armstrong - It Don't Mean A Thing ( If It Ain't Got That Swing)
TTITLE1=Jack Teagarden - Stars Fell On Alabama
TTITLE2=King Pleasure - I'm In The Mood For Love
TTITLE3=Babs Gonzales - Oop-Pop-A-Da
TTITLE4=Billie Eckstine - Lonesome Lover Blues
TTITLE5=Mark Murphy - Swinging On A Star
TTITLE6=Jimmy Rushing - 'Tain't Nobody's Biz-Ness If I Do
TTITLE7=Joe Williams/w. Lambert, Hendricks and Ross - Goin' To Chicago Blues
TTITLE8=Bill Henderson - Senor Blues
TTITLE9=Mose Allison - Your Minds On Vacation
TTITLE10=Chet Baker - You Don't Know What Love Is
TTITLE11=Lou Rawls - Season Of The Witch
TTITLE12=Andy Bey - The Show Has Begun
TTITLE13=Bobby McFerrin - Walkin'
TTITLE14=Bob Dorough - Something For Sidney
TTITLE15=Kurt Elling - Tanganyika Dance ( The Man From Tanganyika)
TTITLE16=Data
EXTD=YEAR: 2004
EXTT0=
EXTT1=
EXTT2=
EXTT3=
EXTT4=
EXTT5=
EXTT6=
EXTT7=
EXTT8=
EXTT9=
EXTT10=
EXTT11=
EXTT12=
EXTT13=
EXTT14=
EXTT15=
EXTT16=
PLAYORDER=
